<?xml version="1.0" encoding="UTF-8"?><svg id="_色_黑白_" xmlns="http://www.w3.org/2000/svg" viewBox="0 0 54 54"><defs><style>.cls-1{fill:#fff;}</style></defs><path id="LINE" class="cls-1" d="M38.05,24.01v1.73h4.5c.25,0,.45,.2,.45,.45v1.67c0,.25-.2,.45-.45,.45h-4.5v1.73h4.5c.25,0,.45,.2,.45,.45v1.67c0,.25-.2,.45-.45,.45h-6.62c-.25,0-.45-.2-.45-.45h0v-10.27h0c0-.26,.2-.46,.45-.46h6.62c.25,0,.45,.2,.45,.45v1.67c0,.25-.2,.45-.45,.45h-4.5Zm-19.98,6.04h-4.5v-8.16c0-.25-.2-.45-.45-.45h-1.67c-.25,0-.45,.2-.45,.45v10.27h0c0,.26,.2,.46,.45,.46h6.62c.25,0,.45-.2,.45-.45v-1.67c0-.25-.2-.45-.45-.45Zm3.98-8.61h-1.67c-.25,0-.45,.2-.45,.45v10.28c0,.25,.2,.45,.45,.45h1.67c.25,0,.45-.2,.45-.45v-10.28c0-.25-.2-.45-.45-.45Zm11.37,0h-1.67c-.25,0-.45,.2-.45,.45v6.11l-4.7-6.35s-.02-.03-.04-.05h0s-.02-.02-.03-.03h0l-.02-.03h-.01l-.02-.03h-.01l-.02-.02h-.01l-.03-.02h-.04l-.02-.02h-1.77c-.25-.01-.45,.19-.45,.44v10.28c0,.25,.2,.45,.45,.45h1.67c.25,0,.45-.2,.45-.45v-6.1l4.71,6.36s.07,.08,.12,.11h0l.03,.02h.01l.02,.02h.04l.03,.02h0s.08,.02,.12,.02h1.66c.25,0,.45-.2,.45-.45v-10.28c0-.25-.2-.45-.45-.45Z"/></svg>