<?xml version="1.0" encoding="UTF-8"?><svg id="_圖層_1" xmlns="http://www.w3.org/2000/svg" viewBox="0 0 128 128"><defs><style>.cls-1{fill:#4392a2;}</style></defs><path class="cls-1" d="M108.56,46.56L69.44,7.44c-2.2-2.2-5.18-3.44-8.29-3.44H27.73c-6.48,0-11.73,5.25-11.73,11.73v96.54c0,6.48,5.25,11.73,11.73,11.73h72.54c6.48,0,11.73-5.25,11.73-11.73v-57.41c0-3.11-1.24-6.09-3.44-8.29ZM66,15.31l35.69,35.69h-29.92c-3.18,0-5.77-2.59-5.77-5.77V15.31ZM100.27,116H27.73c-2.06,0-3.73-1.67-3.73-3.73V15.73c0-2.06,1.67-3.73,3.73-3.73h30.27v33.23c0,7.59,6.18,13.77,13.77,13.77h32.23v53.27c0,2.06-1.67,3.73-3.73,3.73Z"/><rect class="cls-1" x="36" y="99" width="58" height="7.85" rx="3.93" ry="3.93"/><rect class="cls-1" x="36" y="83" width="58" height="7.85" rx="3.93" ry="3.93"/><rect class="cls-1" x="36" y="66.07" width="34" height="7.85" rx="3.93" ry="3.93"/></svg>