<?xml version="1.0" encoding="UTF-8"?><svg id="_圖層_1" xmlns="http://www.w3.org/2000/svg" viewBox="0 0 128 128"><defs><style>.cls-1{fill:#212121;}</style></defs><path class="cls-1" d="M90.85,8.6c2.84,0,5.15,2.31,5.15,5.15v94.34l-26.34-26.34-5.66-5.66-5.66,5.66-26.34,26.34V13.75c0-2.84,2.31-5.15,5.15-5.15h53.7M90.85.6h-53.7c-7.26,0-13.15,5.89-13.15,13.15v103.99c0,2.41,1.97,4.01,4.03,4.01.98,0,1.99-.36,2.8-1.18l33.17-33.17,33.17,33.17c.82.82,1.82,1.18,2.8,1.18,2.06,0,4.03-1.6,4.03-4.01V13.75c0-7.26-5.89-13.15-13.15-13.15h0Z"/></svg>