<?xml version="1.0" encoding="UTF-8"?><svg id="_色_黑白_" xmlns="http://www.w3.org/2000/svg" viewBox="0 0 54 54"><defs><style>.cls-1{fill:#fff;}</style></defs><path id="LINE_Brand" class="cls-1" d="M43,24.74c0-7.16-7.18-12.98-16-12.98s-16,5.82-16,12.98c0,6.42,5.69,11.79,13.38,12.81,.52,.11,1.23,.34,1.41,.79,.16,.4,.11,1.04,.05,1.45,0,0-.19,1.13-.23,1.37-.07,.4-.32,1.58,1.39,.86,1.71-.72,9.21-5.43,12.57-9.29h0c2.32-2.54,3.43-5.12,3.43-7.99Zm-21.65,3.83c0,.17-.14,.31-.31,.31h-4.5c-.17,0-.31-.14-.31-.31h0v-6.98c0-.17,.14-.31,.31-.31h1.13c.17,0,.31,.14,.31,.31v5.54h3.06c.17,0,.31,.14,.31,.31v1.13Zm2.71,0c0,.17-.14,.31-.31,.31h-1.13c-.17,0-.31-.14-.31-.31v-6.98c0-.17,.14-.31,.31-.31h1.13c.17,0,.31,.14,.31,.31v6.98Zm7.72,0c0,.17-.14,.31-.31,.31h-1.13s-.05,0-.08-.01h-.04v-.02h-.04l-.02-.02h0s-.06-.05-.08-.08l-3.2-4.32v4.15c0,.17-.14,.31-.31,.31h-1.13c-.17,0-.31-.14-.31-.31v-6.98c0-.17,.14-.31,.31-.31h1.21l.02,.02h.03v.02h.04l.02,.03h0l.02,.02h0l.02,.02h0s.02,.02,.02,.03l3.19,4.31v-4.15c0-.17,.14-.31,.31-.31h1.13c.17,0,.31,.14,.31,.31v6.98Zm6.2-5.85c0,.17-.14,.31-.31,.31h-3.05v1.18h3.05c.17,0,.31,.14,.31,.31v1.13c0,.17-.14,.31-.31,.31h-3.05v1.18h3.05c.17,0,.31,.14,.31,.31v1.13c0,.17-.14,.31-.31,.31h-4.5c-.17,0-.31-.14-.31-.31h0v-6.98h0c0-.18,.14-.31,.31-.31h4.5c.17,0,.31,.14,.31,.31v1.13Z"/></svg>