<?xml version="1.0" encoding="UTF-8"?><svg id="_圖層_1" xmlns="http://www.w3.org/2000/svg" viewBox="0 0 435.54 67.03"><defs><style>.cls-1,.cls-2{fill:#be0081;}.cls-1,.cls-2,.cls-3{fill-rule:evenodd;}.cls-1,.cls-3{stroke:#fff;stroke-width:.74px;}.cls-4{fill:#231815;}.cls-3{fill:#fff;}.cls-5{fill:#242c8d;}</style></defs><path class="cls-2" d="M34.37,45.2H2.33l7.45-23.01h8.46l-4.99,13.81h10.05L14.18,8.4h8.4l11.79,36.8Z"/><path class="cls-2" d="M53.79,61.92h-8.1c-5.01,0-9.02-1.93-12-5.79-2.65-3.42-3.98-7.64-3.98-12.65s1.33-9.18,3.98-12.65c2.99-3.8,6.99-5.71,12-5.71h8.1v9.2h-8.15c-2.52.05-4.51,1.04-5.96,2.97-1.31,1.71-1.96,3.8-1.96,6.27s.65,4.56,1.96,6.27c1.5,1.93,3.49,2.89,5.96,2.89h8.15v9.2Z"/><path class="cls-2" d="M56.17,48.88v-9.02h14.5c1.06,0,1.6-.77,1.6-2.3s-.53-2.3-1.6-2.3h-14.5v-9.2h14.48c2.94,0,5.31,1.3,7.1,3.89,1.5,2.32,2.25,5.02,2.25,8.1,0,4.13-1.17,6.75-3.51,7.85,2.58,3.03,3.88,7.11,3.88,12.24v4.71h-7.91v-4.88c.05-2.81-.54-5.1-1.75-6.87-1.02-1.49-2.01-2.23-2.98-2.23h-11.56Z"/><path class="cls-1" d="M144.08,39.16c0,3.64-.86,6.46-2.56,8.47s-4.1,3.02-7.18,3.02h-10.4v-9.2h10.18c1.31,0,1.96-.8,1.96-2.39,0-2.09-1.04-4.04-3.11-5.85-3.57-2.96-5.52-4.67-5.85-5.11-2.12-2.64-3.18-6.01-3.18-10.13v-4.12h8c.14.55.14,1.85,0,3.89,0,2.21,1.05,4.22,3.16,6.04,3.59,3.09,5.56,4.83,5.89,5.21,2.06,2.59,3.09,5.98,3.09,10.17Z"/><path class="cls-2" d="M164.25,50.45c0,3.64-.86,6.46-2.56,8.47-1.71,2.01-4.1,3.02-7.18,3.02h-10.4v-9.2h10.18c1.31,0,1.96-.8,1.96-2.39,0-2.09-1.04-4.04-3.11-5.85-3.57-2.97-5.52-4.67-5.85-5.11-2.12-2.64-3.18-6.01-3.18-10.13v-4.12h8c.14.55.14,1.85,0,3.89,0,2.2,1.05,4.22,3.16,6.04,3.59,3.09,5.56,4.83,5.89,5.21,2.06,2.59,3.09,5.98,3.09,10.17Z"/><path class="cls-2" d="M76.43,26.72c0,12.88,10.47,23.35,23.35,23.35s23.35-10.48,23.35-23.35S112.66,3.37,99.78,3.37s-23.35,10.47-23.35,23.35ZM83.05,26.72c0-9.22,7.5-16.72,16.73-16.72s16.73,7.5,16.73,16.72-7.5,16.73-16.73,16.73-16.73-7.5-16.73-16.73Z"/><path class="cls-3" d="M83.05,26.72c0-9.22,7.5-16.72,16.73-16.72s16.73,7.5,16.73,16.72-7.5,16.73-16.73,16.73-16.73-7.5-16.73-16.73Z"/><path class="cls-5" d="M98.92,42.27v.12s.09,0,.13,0c-.04-.04-.09-.08-.13-.13M110.22,25.2h5.01c-.17-1.78-.63-3.48-1.34-5.04h-4.7c.67,1.97.94,3.72,1.04,5.04M89.52,27.72h-5.22c.12,1.81.53,3.53,1.19,5.12h4.99c-.69-2.17-.91-3.98-.97-5.12M109.35,32.84h4.72c.67-1.59,1.07-3.31,1.19-5.12h-5.07c-.07,1.85-.38,3.56-.84,5.12M104.12,41.79c3.76-1.11,6.94-3.62,8.93-6.93h-4.42c-1.31,3.16-3.17,5.52-4.51,6.93M86.51,34.85c2.08,3.46,5.44,6.05,9.42,7.07-2.27-2.38-3.74-4.84-4.69-7.07h-4.72ZM108.37,18.15h4.41c-2.1-3.26-5.36-5.68-9.2-6.65,2.28,2.2,3.79,4.5,4.78,6.65M100.85,42.38s.03,0,.04,0c2.62-2.39,4.25-5.09,5.25-7.52h-5.3v7.52ZM90.62,20.16h-4.94c-.71,1.56-1.17,3.26-1.34,5.04h5.25c.17-1.87.54-3.54,1.03-5.04M100.85,32.84h6.02c.89-2.91.91-5.04.91-5.04,0-.02,0-.05,0-.07h-6.93v5.12ZM100.85,25.2h6.85c-.15-1.87-.48-3.55-.93-5.04h-5.92v5.04ZM93.71,34.85c1.51,3.51,3.72,6.01,5.21,7.42v-7.42h-5.21ZM106.05,18.15c-1.62-3.88-3.93-6.15-5.03-7.08-.05,0-.11,0-.17-.01v7.09h5.2ZM96.12,11.46c-3.89.95-7.21,3.39-9.33,6.69h4.62c1.55-3.5,3.65-5.71,4.72-6.69M98.92,20.16h-5.84c-.65,2.1-.89,3.91-.98,5.04h6.82v-5.04ZM98.92,11.04s-.06,0-.09,0c-2.45,2.2-4.01,4.73-5.01,7.1h5.1v-7.11ZM92.07,27.72c.08,1.86.41,3.57.89,5.12h5.96v-5.12h-6.85Z"/><path class="cls-4" d="M175.92,42.71c.8.85,1.64,1.88,2.52,3.08.12.17.28.39.5.67l-1.25,1.95-.88-1.68c-.23-.43-.53-.9-.9-1.4v12.65h-2.12v-11.72l-.12.5c-.48,1.67-1.2,3.33-2.15,5l-1.1-2.58c1.5-2.05,2.6-4.49,3.3-7.33h-3.05v-2.05h3.12v-4.82h2.12v4.82h2.2v2.05h-2.2v.85ZM180.32,47.26v-3.45h-1.82v-4.58h6.07v-4.25h2.23v4.25h6.12v4.58h-1.88v3.45h-10.73ZM180.99,57.01v.97h-2.12v-9.6h13.65v9.6h-2.12v-.97h-9.4ZM181.39,39.21c-.6-.93-1.21-1.74-1.83-2.42-.1-.1-.24-.25-.42-.45l1.7-1.12.18.18c.77.73,1.43,1.46,2,2.17.05.07.12.16.23.28l-1.85,1.38ZM190.79,42.33v-1.28h-10.17v1.28h10.17ZM184.64,51.83v-1.7h-3.65v1.7h3.65ZM184.64,55.26v-1.9h-3.65v1.9h3.65ZM188.99,43.93h-6.6v1.73h6.6v-1.73ZM190.39,51.83v-1.7h-3.77v1.7h3.77ZM190.39,55.26v-1.9h-3.77v1.9h3.77ZM192.19,36.41c-.6,1-1.26,1.81-1.98,2.42-.12.1-.26.22-.42.38l-1.67-1.55c.17-.13.31-.24.42-.33.67-.52,1.36-1.23,2.08-2.12l1.57,1.2Z"/><path class="cls-4" d="M209.42,47.79v1.62h10.35v1.92h-8.2c.92.83,1.91,1.53,2.99,2.1,1.07.57,2.85,1.18,5.34,1.85l-1.1,2.07c-2.58-.83-4.52-1.68-5.83-2.55-1.3-.87-2.48-2.02-3.55-3.47v6.65h-2.23v-6.65c-1.27,1.58-2.59,2.8-3.98,3.66s-3.1,1.65-5.15,2.36l-1.17-2.02c3.4-.85,6.08-2.18,8.05-4h-7.98v-1.92h10.23v-1.62h2.23ZM207.57,39.36l-.35.6-.45.67h11.98v1.9h-4.53c-.07.1-.12.18-.15.25-.5.82-1.31,1.64-2.42,2.47l3.38.83c1.05.27,2.27.6,3.65,1l-1.48,1.97-3.95-1.27c-.62-.2-1.47-.43-2.55-.7-.3-.08-.68-.19-1.15-.33-2.17,1.05-5.19,1.72-9.08,2.03-.52.03-1.17.08-1.97.15l-1.1-2.2h1.05c3.32,0,5.88-.3,7.68-.9l-2.55-.58-2.52-.5,1.15-1.3.77-.92h-4.9v-1.9h6.02c.32-.43.56-.8.73-1.1l.5-1,2.25.82ZM207.19,36.56l-.55-.62-.55-.6,2.48-.35.65.8.65.77h9.22v3.3h-2.25v-1.32h-16.82v1.32h-2.25v-3.3h9.42ZM205.67,42.54l-.35.52c-.15.25-.32.47-.5.65l1.83.35,2.45.55c.93-.52,1.71-1.15,2.33-1.9.03-.05.08-.11.15-.17h-5.9Z"/><path class="cls-4" d="M229.52,41.81c-.92.62-2.67,1.33-5.27,2.15l-.7-2.23c.32-.08.58-.15.8-.2,2-.52,3.52-1.07,4.55-1.65l.62,1.92ZM233.19,55.93c-2.62.77-5.14,1.38-7.57,1.85-.22.03-.49.08-.83.15l-1.08-1.88c3.53-.58,6.19-1.17,7.97-1.75l1.5,1.62ZM228.22,39.33c-.33-.27-1.03-.67-2.08-1.23l-1.88-.97,1.42-1.65c1.63.58,2.94,1.27,3.93,2.05l-1.4,1.8ZM231.12,43.86l-1.2-1.35c3-.87,5.07-2.17,6.2-3.92h-2.28c-.13.1-.23.18-.3.25-.53.47-.92.78-1.15.95l-1.52,1.07-1.48-1.6c1.62-1.02,2.72-1.8,3.31-2.36s1.17-1.2,1.74-1.94l2.05.68-.48.62-.47.55h9.67v1.8c-.57.65-1.38,1.37-2.42,2.15-.17.12-.39.28-.67.5l-1.35-1.33,1.1-.7.82-.65h-4.3l-.25.4c1.37,1.13,2.49,1.92,3.38,2.35s2.48.81,4.8,1.12l-.6,2.15-1.03-.22-.92-.22v10.02h-17.4v-10.33h4.75ZM241.52,45.54h-12.88v1.2h12.88v-1.2ZM228.64,49.51h12.88v-1.28h-12.88v1.28ZM228.64,52.46h12.88v-1.42h-12.88v1.42ZM237.19,40.58l-.72.72c-1.18,1.15-2.63,2-4.35,2.55h10.57c-1.98-.5-3.82-1.59-5.5-3.27ZM245.47,57.91l-3.83-1.03c-.67-.17-1.8-.4-3.4-.7-.25-.05-.57-.12-.95-.2l1.15-1.75,1.4.2c2.52.4,4.71.87,6.58,1.4l-.95,2.08Z"/><path class="cls-4" d="M255.07,49.76c-.97,3.45-2.02,6.14-3.17,8.08l-2-1.9c1.27-2.38,2.31-4.88,3.12-7.5l2.05,1.33ZM253.67,46.23l-1.67-1.38c-.3-.23-.7-.52-1.2-.88-.15-.1-.34-.23-.58-.4l1.58-1.73,1.77,1.05c.63.42,1.21.85,1.73,1.3l-1.62,2.02ZM254.07,40.08l-1.75-1.5-1.72-1.3,1.55-1.75,1.78,1.12c.62.4,1.22.86,1.83,1.38l-1.68,2.05ZM265.14,49.11h-4.62v-9.52h4.08l.38-1.12c.07-.27.11-.46.12-.58.02-.12.03-.22.05-.3h-6.15v6.8c-.12,3.6-.4,6.38-.86,8.35-.46,1.97-1.07,3.71-1.84,5.23l-2.05-1.65c1.62-3.35,2.42-7.29,2.42-11.83v-8.9h16.25v2h-5.5l-.22.97-.3,1.03h5.08v9.52h-4.55v6.03c0,.87-.16,1.51-.47,1.92s-1.1.62-2.35.62h-1.4l-.57-2.35,1.7.12c.55,0,.82-.26.82-.78v-5.58ZM263.72,50.79c-1.02,2.65-2.08,4.61-3.17,5.88l-2.05-1.38c1.3-1.53,2.27-3.19,2.92-4.98.03-.12.09-.27.18-.45l2.12.93ZM269.69,41.46h-6.9v1.9h6.9v-1.9ZM262.79,47.23h6.9v-2.17h-6.9v2.17ZM270.59,56.46c-.62-2.28-1.35-4.19-2.2-5.73l2-.82c1.22,2.23,2.04,4.09,2.48,5.57l-2.28.98Z"/><path class="cls-4" d="M283.59,43.76c.92.38,1.73.77,2.42,1.15l2.05,1.15-1.08,1.7c-.23-.17-.42-.3-.55-.4-.73-.55-1.5-1.05-2.3-1.5-.13-.07-.32-.17-.55-.3v2.58h-2.02v-2.55c-.93.8-2.24,1.59-3.93,2.38l-1.05-1.7c.35-.13.63-.24.85-.33,1.3-.45,2.64-1.17,4.02-2.17h-4.27v-4.62h4.38v-1.2h-5.12v-1.67h5.12v-1.27h2.02v1.27h5.08v1.67h-5.08v1.2h4.4v4.62h-4.4ZM276.44,55.56h4.52v-3.77h2.25v3.77h3.92v-4.77h-9.22v-1.93h20.67v1.93h-9.2v1.42h8.3v1.77h-8.3v1.58h10.08v1.92h-23.02v-1.92ZM281.57,42.21v-1.53h-2.53v1.53h2.53ZM286.12,42.21v-1.53h-2.53v1.53h2.53ZM288.04,40.91c1.8-1.38,3.17-3.36,4.12-5.93l2,.53-.42,1.17-.45.98h6.12v1.8h-1.28c-.07.2-.12.36-.15.47-.53,1.63-1.37,3.12-2.5,4.48,1.03.72,2.22,1.26,3.58,1.62.1.03.23.07.4.12l-.92,1.95c-1.48-.42-3-1.18-4.55-2.3-1.18.87-2.49,1.57-3.92,2.1-.12.05-.26.12-.43.2l-1.17-1.92c.17-.05.31-.09.42-.12,1.55-.4,2.75-.96,3.6-1.67-.15-.18-.28-.33-.38-.45-.52-.6-1.05-1.38-1.6-2.33l-.57.58-.73.6-1.17-1.88ZM292.32,39.46l-.43.6.25.5c.45.85.98,1.59,1.58,2.23l.28.27c.88-1.12,1.53-2.2,1.95-3.25.03-.08.08-.2.15-.35h-3.77Z"/><path class="cls-4" d="M307.82,44.46v-1.83c-.52.33-1.11.64-1.78.92l-1.92.78-1.2-2.42c4.18-1.4,7.59-3.68,10.22-6.83h2.53c2.37,2.82,5.79,5.06,10.28,6.72l-1.3,2.48-1.65-.7c-.82-.37-1.39-.66-1.73-.88v1.75h-13.45ZM305.89,47.33h17.12v10.65h-2.47v-1.42h-12.17v1.42h-2.48v-10.65ZM320.54,49.46h-12.17v4.97h12.17v-4.97ZM320.47,42.21c-.52-.33-.93-.6-1.25-.8-1.68-1.08-3.29-2.48-4.83-4.18-1.78,1.95-3.72,3.61-5.82,4.98h11.9Z"/><path class="cls-4" d="M352.42,55.13v2.12h-23.03v-2.12h23.03ZM350.02,44.98v8.5h-17.92v-8.5l-1.55.78-1.12-2.12c3.22-1.1,5.88-2.6,8-4.5h-7.95v-2.08h10.3v-2.07h2.33v2.07h10.2v2.08h-7.8c1.78,1.62,4.42,3.05,7.9,4.3l-1.12,2.15-1.25-.6ZM342.09,39.21v4.02h-2.33v-3.97c-1.62,2.1-3.62,3.75-6.02,4.95h14.9c-2.43-1.07-4.62-2.73-6.55-5ZM347.69,46.21h-13.28v1.65h13.28v-1.65ZM347.69,49.61h-13.28v1.88h13.28v-1.88Z"/><path class="cls-4" d="M359.42,37.88l-.4-1.15c-.2-.57-.42-1.05-.65-1.45l2.25-.3c.23.38.45.89.65,1.52l.45,1.38h3.1v2.1h-8.9v-2.1h3.5ZM356.62,41.56h7.4v2h-7.4v-2ZM356.62,45.23h7.45v1.98h-7.45v-1.98ZM356.69,49.13h7.38v8.6h-2.18v-1.12h-3.02v1.38h-2.17v-8.85ZM361.89,51.08h-3.02v3.55h3.02v-3.55ZM373.92,42.21v11.7h-7.92v-9.53l-.7.97-1.22-2.38c1.97-2.25,3.47-4.9,4.52-7.95l2.25.38-.55,1.5c-.2.47-.38.86-.53,1.17h8.38v1.83c0,7.15-.08,11.6-.24,13.34s-.55,2.95-1.16,3.61c-.62.67-1.99,1-4.12,1-.55,0-.86,0-.92-.02l-.6-2.33c.43.07,1.02.1,1.75.1h.5c.12-.02.21-.02.28-.02.47,0,.83-.07,1.09-.21.26-.14.49-.47.69-.99.33-.85.5-4.42.5-10.7v-2.45c0-.62,0-.96-.02-1.02h-7.08l-.58,1-.6,1h6.3ZM368.07,46.91h3.77v-2.75h-3.77v2.75ZM368.07,51.98h3.77v-3.17h-3.77v3.17Z"/><path class="cls-4" d="M404.89,36.01v2.25h-9.6v9.33h10.12v2.27h-10.15v8.12h-2.47v-8.1h-10.4v-2.3h10.38v-9.33h-9.65v-2.25h21.77ZM386.69,39.68c.58.88,1.07,1.67,1.47,2.38l1.53,2.8-2.23,1.28c-1.18-2.58-2.15-4.36-2.9-5.33l2.12-1.12ZM401.34,40.33c.12-.2.27-.45.45-.75l2.03,1.25c-.98,1.88-2.23,3.68-3.75,5.4l-2.08-1.42c1.33-1.47,2.45-2.96,3.35-4.47Z"/><path class="cls-4" d="M419.54,35.68c-1.1,2.12-2.57,4.4-4.4,6.85,2.27,0,4.01,0,5.23-.03h1.2c1.75,0,3.42-.08,5-.25l-2.03-2.03-1.95-1.8,1.95-1.47c2.75,2.35,5.21,4.88,7.38,7.58l-1.92,1.88-.83-1.12-.62-.83c-2.85.23-5.67.35-8.47.35-5.2,0-8.83.04-10.88.12l-.25-2.55,1.9.12h1.38c2.12-2.5,3.73-5.01,4.85-7.52l2.47.7ZM411.07,47.38h18.62v10.6h-2.5v-1.47h-13.62v1.47h-2.5v-10.6ZM427.19,49.56h-13.62v4.78h13.62v-4.78Z"/><path class="cls-4" d="M174.49,23.01l-1.32,3.96c-.05.14-.12.19-.26.19h-2.4c-.14,0-.19-.07-.17-.24l4.94-14.06c.1-.24.17-.48.22-1.3,0-.1.05-.17.14-.17h3.34c.12,0,.14.02.17.14l5.54,15.41c.02.14,0,.22-.14.22h-2.69c-.12,0-.19-.05-.24-.14l-1.39-4.01h-5.74ZM179.46,20.39c-.5-1.58-1.63-4.92-2.11-6.6h-.02c-.38,1.61-1.34,4.42-2.06,6.6h4.2Z"/><path class="cls-4" d="M188.41,15.33c.14,0,.22.05.26.19.12.31.22.91.24,1.44.82-1.01,2.18-1.87,3.84-1.87.14,0,.19.02.19.17v2.54c0,.12-.05.17-.22.17-1.7-.05-3.12.55-3.67,1.27v7.73c0,.14-.07.19-.22.19h-2.5c-.17,0-.22-.07-.22-.19v-8.28c0-1.03-.02-2.42-.12-3.22,0-.12.02-.14.14-.14h2.26Z"/><path class="cls-4" d="M202.78,26.82c0,.12-.02.17-.12.19-.77.31-1.73.38-2.66.38-3.89,0-6.19-2.66-6.19-6.12s2.64-6.19,6.6-6.19c1.2,0,1.85.12,2.26.26.1.05.12.12.12.26l-.02,2.14c0,.17-.1.17-.19.14-.5-.19-1.13-.31-2.06-.31-2.18,0-3.72,1.3-3.72,3.6,0,2.62,1.9,3.62,3.74,3.62.86,0,1.61-.07,2.09-.24.12-.05.17.02.17.12v2.14Z"/><path class="cls-4" d="M207.75,26.99c0,.12-.02.17-.17.17h-2.54c-.14,0-.19-.07-.19-.19V10.24c0-.1.05-.17.19-.17h2.54c.14,0,.17.05.17.17v5.95c.91-.67,1.92-1.1,3.29-1.1,1.82,0,4.01.91,4.01,4.75v7.1c0,.17-.07.22-.19.22h-2.5c-.14,0-.22-.07-.22-.22v-6.82c0-1.61-.7-2.52-2.09-2.52-.89,0-1.68.29-2.3.84v8.54Z"/><path class="cls-4" d="M217.76,12.06c0-.98.7-1.66,1.66-1.66,1.03,0,1.63.7,1.63,1.66s-.65,1.66-1.66,1.66-1.63-.67-1.63-1.66ZM217.93,15.49c0-.12.07-.17.19-.17h2.54c.14,0,.19.02.19.17v11.47c0,.14-.05.19-.22.19h-2.47c-.17,0-.24-.07-.24-.22v-11.45Z"/><path class="cls-4" d="M226.59,27.16c-.14,0-.19-.07-.24-.14-.79-2.3-3.12-9.12-3.96-11.52-.02-.1,0-.17.14-.17h2.74c.12,0,.17.02.21.14,1.73,5.62,2.35,7.92,2.59,8.98h.05c.26-1.06.98-3.34,2.81-8.98.02-.12.1-.14.19-.14h2.42c.07,0,.17.05.12.19-.91,2.52-3.24,9.24-4.06,11.47-.05.12-.12.17-.26.17h-2.76Z"/><path class="cls-4" d="M237.39,21.9c.07,1.68,1.18,3.02,3.62,3.02,1.08,0,2.06-.19,2.98-.58.07-.05.14-.02.14.1v1.99c0,.14-.05.22-.14.26-.91.43-1.97.7-3.6.7-4.37,0-5.93-3.07-5.93-6.02,0-3.34,2.02-6.29,5.64-6.29s4.92,2.78,4.92,5.06c0,.67-.02,1.22-.1,1.49-.02.1-.07.14-.19.17-.34.07-1.3.1-2.47.1h-4.87ZM240.97,19.84c.91,0,1.22,0,1.32-.02v-.19c0-.7-.48-2.23-2.3-2.23-1.66,0-2.4,1.27-2.59,2.45h3.58Z"/><path class="cls-4" d="M251,17.41c-1.27,0-1.7.53-1.7,1.03s.36.89,1.9,1.49c2.74,1.01,3.67,2.09,3.67,3.79,0,2.26-1.78,3.67-4.73,3.67-1.42,0-2.67-.26-3.38-.67-.12-.07-.17-.12-.17-.26v-2.28c0-.12.1-.17.19-.12,1.03.67,2.35.96,3.43.96,1.25,0,1.85-.43,1.85-1.06s-.46-.98-1.95-1.58c-2.62-.96-3.55-2.04-3.55-3.77,0-1.82,1.49-3.53,4.49-3.53,1.39,0,2.45.19,3.02.48.12.07.14.17.14.29v2.11c0,.12-.07.19-.22.14-.74-.41-1.94-.7-3-.7Z"/><path class="cls-4" d="M273.22,26.66c0,.14-.05.26-.17.31-.79.29-1.97.43-3.31.43-4.44,0-8.23-2.62-8.23-8.09,0-4.82,3.36-8.16,8.59-8.16,1.56,0,2.52.14,3.12.41.1.05.14.12.14.26v2.28c0,.19-.1.19-.19.14-.77-.36-1.87-.53-3.12-.53-3.38,0-5.54,2.16-5.54,5.52,0,4.15,3.07,5.57,5.59,5.57,1.18,0,2.06-.1,2.95-.41.1-.05.17-.02.17.12v2.14Z"/><path class="cls-4" d="M277.64,15.33c.14,0,.22.05.26.19.12.31.22.91.24,1.44.82-1.01,2.18-1.87,3.84-1.87.14,0,.19.02.19.17v2.54c0,.12-.05.17-.22.17-1.7-.05-3.12.55-3.67,1.27v7.73c0,.14-.07.19-.21.19h-2.5c-.17,0-.22-.07-.22-.19v-8.28c0-1.03-.02-2.42-.12-3.22,0-.12.02-.14.14-.14h2.26Z"/><path class="cls-4" d="M294.58,21.18c0,3.72-2.38,6.22-5.76,6.22-4.01,0-5.79-3.1-5.79-6.14,0-3.41,2.23-6.17,5.83-6.17s5.71,2.81,5.71,6.1ZM285.96,21.21c0,2.21,1.08,3.74,2.9,3.74,1.49,0,2.76-1.22,2.76-3.7,0-1.99-.86-3.74-2.9-3.74-1.61,0-2.76,1.42-2.76,3.7Z"/><path class="cls-4" d="M300.75,17.41c-1.27,0-1.7.53-1.7,1.03s.36.89,1.9,1.49c2.74,1.01,3.67,2.09,3.67,3.79,0,2.26-1.78,3.67-4.73,3.67-1.42,0-2.66-.26-3.38-.67-.12-.07-.17-.12-.17-.26v-2.28c0-.12.1-.17.19-.12,1.03.67,2.35.96,3.43.96,1.25,0,1.85-.43,1.85-1.06s-.46-.98-1.94-1.58c-2.62-.96-3.55-2.04-3.55-3.77,0-1.82,1.49-3.53,4.49-3.53,1.39,0,2.45.19,3.02.48.12.07.14.17.14.29v2.11c0,.12-.07.19-.22.14-.74-.41-1.94-.7-3-.7Z"/><path class="cls-4" d="M310.51,17.41c-1.27,0-1.7.53-1.7,1.03s.36.89,1.9,1.49c2.74,1.01,3.67,2.09,3.67,3.79,0,2.26-1.78,3.67-4.73,3.67-1.42,0-2.66-.26-3.38-.67-.12-.07-.17-.12-.17-.26v-2.28c0-.12.1-.17.19-.12,1.03.67,2.35.96,3.43.96,1.25,0,1.85-.43,1.85-1.06s-.46-.98-1.94-1.58c-2.62-.96-3.55-2.04-3.55-3.77,0-1.82,1.49-3.53,4.49-3.53,1.39,0,2.45.19,3.02.48.12.07.14.17.14.29v2.11c0,.12-.07.19-.22.14-.74-.41-1.94-.7-3-.7Z"/><path class="cls-4" d="M324.36,10.07c.17,0,.22.02.22.19l.02,5.16c.65-.22,1.39-.34,2.19-.34,3.46,0,5.66,2.45,5.66,5.66,0,4.44-3.46,6.65-7.01,6.65-1.25,0-2.45-.17-3.6-.53-.1-.02-.17-.14-.17-.22V10.24c0-.12.07-.17.17-.17h2.52ZM326.28,17.56c-.84,0-1.29.12-1.68.26v7.01c.34.1.7.12,1.11.12,1.97,0,3.79-1.25,3.79-3.91,0-2.28-1.32-3.48-3.22-3.48Z"/><path class="cls-4" d="M345.53,21.18c0,3.72-2.38,6.22-5.76,6.22-4.01,0-5.79-3.1-5.79-6.14,0-3.41,2.23-6.17,5.83-6.17s5.71,2.81,5.71,6.1ZM336.91,21.21c0,2.21,1.08,3.74,2.9,3.74,1.49,0,2.76-1.22,2.76-3.7,0-1.99-.86-3.74-2.9-3.74-1.61,0-2.76,1.42-2.76,3.7Z"/><path class="cls-4" d="M357.65,24.52c0,1.25.1,1.97.14,2.47.02.12-.05.17-.19.17h-2.21c-.17,0-.22-.05-.24-.14-.07-.24-.14-.6-.17-.84-1.03.96-2.26,1.22-3.34,1.22-2.28,0-4.03-1.22-4.03-4.58v-7.32c0-.14.05-.17.19-.17h2.52c.14,0,.17.05.17.17v6.98c0,1.49.65,2.4,2.09,2.4.91,0,1.58-.31,2.18-.86v-8.52c0-.12.05-.17.19-.17h2.52c.14,0,.17.05.17.17v9.02Z"/><path class="cls-4" d="M360.53,18.09c0-.82-.05-2.11-.1-2.59,0-.12.02-.17.17-.17h2.18c.17,0,.24.05.29.17.07.22.12.53.17.91,1.03-.86,2.18-1.32,3.48-1.32,1.8,0,4.01.91,4.01,4.75v7.1c0,.17-.07.22-.19.22h-2.5c-.14,0-.21-.07-.21-.22v-6.84c0-1.58-.67-2.5-2.06-2.5-.96,0-1.75.36-2.33.98v8.38c0,.12-.07.19-.19.19h-2.52c-.14,0-.19-.07-.19-.19v-8.88Z"/><path class="cls-4" d="M372.84,21.35c0-3.48,2.59-6.26,6.82-6.26.34,0,.62.02,1.03.07v-4.92c0-.12.05-.17.14-.17h2.62c.12,0,.12.05.12.14v14.5c0,.48.05,1.1.1,1.54,0,.12-.02.17-.14.22-1.56.67-3.1.94-4.54.94-3.48,0-6.14-2.02-6.14-6.05ZM380.69,17.68c-.31-.12-.7-.17-1.13-.17-2.13,0-3.74,1.37-3.74,3.7,0,2.62,1.56,3.7,3.48,3.7.48,0,.96-.05,1.39-.19v-7.03Z"/><path class="cls-4" d="M395.43,24.71c0,.53,0,1.01.05,1.51,0,.05,0,.07-.05.1-1.97.84-3.36,1.08-4.99,1.08-2.62,0-4.71-1.22-4.71-3.94,0-2.54,2.28-3.82,5.4-3.82.72,0,1.27.02,1.49.05v-.29c0-.55-.31-1.8-2.42-1.8-1.2,0-2.26.24-3.14.67-.07.02-.19,0-.19-.14v-2.09c0-.12.02-.17.14-.24,1.03-.48,2.35-.72,3.65-.72,3.34,0,4.78,2.09,4.78,4.75v4.87ZM392.62,21.88c-.36-.05-.77-.07-1.32-.07-1.9,0-2.74.62-2.74,1.66,0,.89.62,1.66,2.35,1.66.62,0,1.18-.07,1.7-.29v-2.95Z"/><path class="cls-4" d="M400.56,15.33c.14,0,.22.05.27.19.12.31.21.91.24,1.44.82-1.01,2.19-1.87,3.84-1.87.14,0,.19.02.19.17v2.54c0,.12-.05.17-.22.17-1.7-.05-3.12.55-3.67,1.27v7.73c0,.14-.07.19-.21.19h-2.5c-.17,0-.22-.07-.22-.19v-8.28c0-1.03-.02-2.42-.12-3.22,0-.12.02-.14.14-.14h2.26Z"/><path class="cls-4" d="M406.51,12.06c0-.98.7-1.66,1.66-1.66,1.03,0,1.63.7,1.63,1.66s-.65,1.66-1.66,1.66-1.63-.67-1.63-1.66ZM406.68,15.49c0-.12.07-.17.19-.17h2.54c.14,0,.19.02.19.17v11.47c0,.14-.05.19-.22.19h-2.47c-.17,0-.24-.07-.24-.22v-11.45Z"/><path class="cls-4" d="M414.65,21.9c.07,1.68,1.18,3.02,3.62,3.02,1.08,0,2.06-.19,2.98-.58.07-.05.14-.02.14.1v1.99c0,.14-.05.22-.14.26-.91.43-1.97.7-3.6.7-4.37,0-5.93-3.07-5.93-6.02,0-3.34,2.02-6.29,5.64-6.29s4.92,2.78,4.92,5.06c0,.67-.03,1.22-.1,1.49-.03.1-.07.14-.19.17-.34.07-1.29.1-2.47.1h-4.87ZM418.22,19.84c.91,0,1.22,0,1.32-.02v-.19c0-.7-.48-2.23-2.3-2.23-1.66,0-2.4,1.27-2.59,2.45h3.58Z"/><path class="cls-4" d="M428.26,17.41c-1.27,0-1.71.53-1.71,1.03s.36.89,1.9,1.49c2.74,1.01,3.67,2.09,3.67,3.79,0,2.26-1.78,3.67-4.73,3.67-1.42,0-2.66-.26-3.38-.67-.12-.07-.17-.12-.17-.26v-2.28c0-.12.1-.17.19-.12,1.03.67,2.35.96,3.43.96,1.25,0,1.85-.43,1.85-1.06s-.46-.98-1.95-1.58c-2.62-.96-3.55-2.04-3.55-3.77,0-1.82,1.49-3.53,4.49-3.53,1.39,0,2.45.19,3.03.48.12.07.14.17.14.29v2.11c0,.12-.07.19-.22.14-.74-.41-1.94-.7-3-.7Z"/></svg>